<?xml version="1.0" encoding="UTF-8" standalone="no"?>
<!DOCTYPE svg PUBLIC "-//W3C//DTD SVG 1.1//EN" "http://www.w3.org/Graphics/SVG/1.1/DTD/svg11.dtd">
<svg xmlns="http://www.w3.org/2000/svg" version="1.1" viewBox="0.00 0.00 1418.00 499.00">
<path fill="#ffffff" d="
  M 131.04 186.45
  L 118.74 216.05
  A 0.33 0.33 0.0 0 1 118.44 216.25
  L 75.53 216.25
  A 0.33 0.33 0.0 0 1 75.22 215.79
  L 140.38 68.20
  A 0.33 0.33 0.0 0 1 140.69 68.00
  L 191.31 68.00
  A 0.33 0.33 0.0 0 1 191.62 68.20
  L 256.77 215.79
  A 0.33 0.33 0.0 0 1 256.46 216.25
  L 212.49 216.25
  A 0.33 0.33 0.0 0 1 212.19 216.05
  L 199.75 186.45
  A 0.33 0.33 0.0 0 0 199.45 186.25
  L 131.34 186.25
  A 0.33 0.33 0.0 0 0 131.04 186.45
  Z
  M 144.79 153.32
  A 0.31 0.31 0.0 0 0 145.07 153.75
  L 185.69 153.75
  A 0.31 0.31 0.0 0 0 185.97 153.32
  L 165.67 104.85
  A 0.31 0.31 0.0 0 0 165.09 104.85
  L 144.79 153.32
  Z"
/>
<path fill="#ffffff" d="
  M 416.76 111.06
  A 0.28 0.28 0.0 0 0 416.22 110.96
  L 377.77 215.73
  A 0.79 0.79 0.0 0 1 377.03 216.25
  L 343.08 216.25
  Q 342.43 216.25 342.20 215.64
  L 303.54 110.27
  A 0.16 0.16 0.0 0 0 303.23 110.32
  L 303.26 215.75
  A 0.51 0.50 -0.0 0 1 302.75 216.25
  L 264.75 216.25
  A 0.50 0.50 0.0 0 1 264.25 215.75
  L 264.25 68.50
  A 0.50 0.50 0.0 0 1 264.75 68.00
  L 325.97 68.00
  A 0.75 0.74 79.9 0 1 326.67 68.49
  L 360.07 160.48
  A 0.20 0.17 -85.9 0 0 360.13 160.56
  Q 361.14 161.43 361.01 160.23
  Q 360.98 159.98 361.06 159.77
  Q 377.42 114.44 393.92 68.57
  Q 394.12 68.00 394.72 68.00
  L 455.25 68.00
  A 0.50 0.50 0.0 0 1 455.75 68.50
  L 455.75 215.75
  A 0.50 0.50 0.0 0 1 455.25 216.25
  L 417.25 216.25
  Q 416.74 216.25 416.74 215.75
  L 416.76 111.06
  Z"
/>
<path fill="#ffffff" d="
  M 525.82 182.75
  L 610.66 182.74
  A 0.34 0.34 0.0 0 1 611.00 183.08
  L 611.00 215.91
  A 0.34 0.34 0.0 0 1 610.66 216.25
  L 486.34 216.25
  A 0.34 0.34 0.0 0 1 486.00 215.91
  L 486.00 68.34
  A 0.34 0.34 0.0 0 1 486.34 68.00
  L 610.66 68.00
  A 0.34 0.34 0.0 0 1 611.00 68.34
  L 611.00 101.41
  A 0.34 0.34 0.0 0 1 610.66 101.75
  L 525.81 101.75
  A 0.34 0.34 0.0 0 0 525.47 102.09
  L 525.48 124.91
  A 0.34 0.34 0.0 0 0 525.82 125.25
  L 608.66 125.24
  A 0.34 0.34 0.0 0 1 609.00 125.58
  L 609.00 158.66
  A 0.34 0.34 0.0 0 1 608.66 159.00
  L 525.83 159.00
  A 0.34 0.34 0.0 0 0 525.49 159.34
  L 525.48 182.41
  A 0.34 0.34 0.0 0 0 525.82 182.75
  Z"
/>
<path fill="#ffffff" d="
  M 736.52 163.39
  L 784.50 215.72
  Q 784.99 216.25 784.27 216.25
  L 736.42 216.25
  Q 735.88 216.25 735.53 215.84
  L 691.11 164.71
  A 1.36 1.33 -20.1 0 0 690.09 164.25
  L 677.25 164.25
  Q 676.50 164.25 676.50 165.00
  L 676.50 215.50
  Q 676.50 216.25 675.75 216.25
  L 637.50 216.25
  Q 637.00 216.25 637.00 215.75
  L 637.00 68.52
  Q 637.00 68.03 637.48 68.03
  Q 695.60 67.93 718.49 68.01
  Q 725.94 68.03 734.75 69.25
  C 788.01 76.60 789.29 151.27 736.89 162.24
  Q 735.69 162.49 736.52 163.39
  Z
  M 676.53 102.18
  L 676.47 131.26
  A 0.46 0.46 0.0 0 0 676.93 131.72
  L 718.75 131.79
  A 16.94 14.32 0.1 0 0 735.72 117.50
  L 735.72 116.14
  A 16.94 14.32 0.1 0 0 718.81 101.79
  L 676.99 101.72
  A 0.46 0.46 0.0 0 0 676.53 102.18
  Z"
/>
<rect fill="#ffffff" x="796.25" y="68.01" width="39.52" height="148.24" rx="0.43"/>
<path fill="#ffffff" d="
  M 857.24 152.56
  C 854.97 122.45 862.84 91.10 892.34 76.61
  C 906.14 69.84 920.24 68.11 935.59 68.04
  Q 956.55 67.94 977.52 68.02
  Q 978.00 68.03 978.00 68.51
  L 978.00 102.48
  A 0.48 0.48 0.0 0 1 977.52 102.96
  Q 955.87 103.08 934.38 102.98
  C 904.95 102.84 892.95 124.73 896.97 151.38
  C 901.96 184.50 930.83 183.91 957.48 182.55
  A 0.41 0.41 0.0 0 1 957.87 183.13
  L 942.66 215.43
  A 1.39 1.37 -77.6 0 1 941.43 216.23
  Q 931.88 216.40 922.01 215.88
  C 884.87 213.94 860.03 189.41 857.24 152.56
  Z"
/>
<path fill="#ffffff" d="
  M 1026.30 68.00
  L 1076.87 68.00
  A 0.33 0.33 0.0 0 1 1077.18 68.20
  L 1142.33 215.79
  A 0.33 0.33 0.0 0 1 1142.02 216.25
  L 1098.14 216.25
  A 0.33 0.33 0.0 0 1 1097.83 216.05
  L 1085.35 186.45
  A 0.33 0.33 0.0 0 0 1085.04 186.25
  L 1016.90 186.25
  A 0.33 0.33 0.0 0 0 1016.60 186.45
  L 1004.35 216.05
  A 0.33 0.33 0.0 0 1 1004.05 216.25
  L 961.17 216.25
  A 0.33 0.33 0.0 0 1 960.86 215.79
  L 1025.99 68.20
  A 0.33 0.33 0.0 0 1 1026.30 68.00
  Z
  M 1030.42 153.26
  A 0.35 0.35 0.0 0 0 1030.75 153.75
  L 1071.19 153.75
  A 0.35 0.35 0.0 0 0 1071.52 153.26
  L 1051.29 104.94
  A 0.35 0.35 0.0 0 0 1050.65 104.94
  L 1030.42 153.26
  Z"
/>
<path fill="#ffffff" d="
  M 1259.29 157.81
  A 0.32 0.32 0.0 0 0 1259.93 157.76
  C 1260.52 146.50 1260.06 132.24 1260.11 123.99
  Q 1260.28 96.26 1259.89 68.62
  A 0.62 0.62 0.0 0 1 1260.51 68.00
  L 1298.75 68.00
  A 0.50 0.50 0.0 0 1 1299.25 68.50
  L 1299.25 215.75
  A 0.50 0.50 0.0 0 1 1298.75 216.25
  L 1251.98 216.25
  A 0.98 0.98 0.0 0 1 1251.16 215.81
  L 1189.64 123.05
  A 0.22 0.22 0.0 0 0 1189.23 123.17
  L 1189.26 215.93
  A 0.32 0.32 0.0 0 1 1188.94 216.25
  L 1150.50 216.25
  A 0.50 0.50 0.0 0 1 1150.00 215.75
  L 1150.00 68.50
  Q 1150.00 68.00 1150.50 68.00
  L 1199.25 68.00
  Q 1199.78 68.00 1200.08 68.45
  Q 1229.38 112.36 1258.57 156.18
  Q 1259.11 156.99 1259.29 157.81
  Z"
/>
<path fill="#ffffff" d="
  M 304.46 373.01
  L 389.29 373.00
  A 0.46 0.46 0.0 0 1 389.75 373.46
  L 389.75 406.29
  A 0.46 0.46 0.0 0 1 389.29 406.75
  L 264.71 406.75
  A 0.46 0.46 0.0 0 1 264.25 406.29
  L 264.25 259.21
  A 0.46 0.46 0.0 0 1 264.71 258.75
  L 389.29 258.75
  A 0.46 0.46 0.0 0 1 389.75 259.21
  L 389.75 291.80
  A 0.46 0.46 0.0 0 1 389.29 292.26
  L 304.46 292.25
  A 0.46 0.46 0.0 0 0 304.00 292.71
  L 304.00 315.54
  A 0.46 0.46 0.0 0 0 304.46 316.00
  L 387.04 316.00
  A 0.46 0.46 0.0 0 1 387.50 316.46
  L 387.50 349.04
  A 0.46 0.46 0.0 0 1 387.04 349.50
  L 304.46 349.49
  A 0.46 0.46 0.0 0 0 304.00 349.95
  L 304.00 372.55
  A 0.46 0.46 0.0 0 0 304.46 373.01
  Z"
/>
<path fill="#ffffff" d="
  M 487.01 303.07
  L 525.14 258.87
  A 0.34 0.34 0.0 0 1 525.40 258.75
  L 574.82 258.75
  A 0.34 0.34 0.0 0 1 575.08 259.32
  L 511.43 330.84
  A 0.34 0.34 0.0 0 0 511.43 331.30
  L 577.58 406.18
  A 0.34 0.34 0.0 0 1 577.33 406.75
  L 526.59 406.75
  A 0.34 0.34 0.0 0 1 526.33 406.63
  L 486.33 360.16
  A 0.34 0.34 0.0 0 0 485.81 360.16
  L 445.84 406.62
  A 0.34 0.34 0.0 0 1 445.58 406.74
  L 396.10 406.78
  A 0.34 0.34 0.0 0 1 395.84 406.21
  L 461.54 332.17
  A 0.34 0.34 0.0 0 0 461.54 331.71
  L 397.11 259.32
  A 0.34 0.34 0.0 0 1 397.37 258.75
  L 448.06 258.75
  A 0.34 0.34 0.0 0 1 448.32 258.87
  L 486.49 303.07
  A 0.34 0.34 0.0 0 0 487.01 303.07
  Z"
/>
<path fill="#ffffff" d="
  M 622.25 359.02
  L 622.25 406.25
  Q 622.25 406.75 621.75 406.75
  L 583.25 406.75
  Q 582.75 406.75 582.75 406.25
  L 582.75 259.26
  A 0.50 0.50 0.0 0 1 583.25 258.76
  Q 625.77 258.72 668.50 258.77
  C 705.04 258.82 729.31 284.96 720.67 322.18
  C 715.48 344.51 693.61 358.29 671.56 358.40
  Q 647.17 358.52 622.76 358.50
  Q 622.25 358.50 622.25 359.02
  Z
  M 622.19 292.97
  L 622.30 324.51
  A 0.62 0.62 0.0 0 0 622.92 325.12
  L 665.63 324.97
  A 16.95 15.37 -0.2 0 0 682.52 309.54
  L 682.52 307.50
  A 16.95 15.37 -0.2 0 0 665.51 292.19
  L 622.80 292.34
  A 0.62 0.62 0.0 0 0 622.19 292.97
  Z"
/>
<path fill="#ffffff" d="
  M 779.00 355.50
  L 779.00 406.25
  A 0.50 0.50 0.0 0 1 778.50 406.75
  L 739.75 406.75
  Q 739.25 406.75 739.25 406.25
  L 739.25 259.47
  Q 739.25 258.92 739.80 258.91
  Q 809.09 258.32 831.51 258.94
  Q 840.05 259.17 851.93 264.32
  C 882.70 277.65 886.46 322.34 860.86 342.70
  Q 851.52 350.13 838.97 353.04
  A 0.45 0.45 0.0 0 0 838.74 353.79
  L 886.96 406.28
  A 0.28 0.28 0.0 0 1 886.75 406.75
  L 838.78 406.75
  A 1.14 1.14 0.0 0 1 837.93 406.37
  L 793.58 355.39
  Q 793.24 355.00 792.72 355.00
  L 779.50 355.00
  Q 779.00 355.00 779.00 355.50
  Z
  M 778.95 292.92
  L 779.05 321.62
  A 0.54 0.54 0.0 0 0 779.59 322.16
  L 821.37 322.02
  A 16.70 13.97 -0.2 0 0 838.02 307.99
  L 838.02 306.15
  A 16.70 13.97 -0.2 0 0 821.27 292.24
  L 779.49 292.38
  A 0.54 0.54 0.0 0 0 778.95 292.92
  Z"
/>
<path fill="#ffffff" d="
  M 938.40 373.01
  L 1023.60 373.00
  A 0.40 0.40 0.0 0 1 1024.00 373.40
  L 1024.00 406.35
  A 0.40 0.40 0.0 0 1 1023.60 406.75
  L 899.15 406.75
  A 0.40 0.40 0.0 0 1 898.75 406.35
  L 898.74 259.15
  A 0.40 0.40 0.0 0 1 899.14 258.75
  L 1023.60 258.75
  A 0.40 0.40 0.0 0 1 1024.00 259.15
  L 1024.00 291.86
  A 0.40 0.40 0.0 0 1 1023.60 292.26
  L 938.40 292.25
  A 0.40 0.40 0.0 0 0 938.00 292.65
  L 938.00 315.60
  A 0.40 0.40 0.0 0 0 938.40 316.00
  L 1021.35 316.00
  A 0.40 0.40 0.0 0 1 1021.75 316.40
  L 1021.75 349.10
  A 0.40 0.40 0.0 0 1 1021.35 349.50
  L 938.40 349.50
  A 0.40 0.40 0.0 0 0 938.00 349.90
  L 938.00 372.61
  A 0.40 0.40 0.0 0 0 938.40 373.01
  Z"
/>
<path fill="#ffffff" d="
  M 1129.51 315.97
  C 1161.01 315.83 1181.93 334.68 1176.85 367.52
  C 1173.62 388.42 1158.35 401.89 1138.33 405.62
  Q 1132.64 406.68 1118.98 406.71
  Q 1082.23 406.81 1045.48 406.73
  Q 1045.00 406.73 1045.00 406.24
  L 1045.00 373.52
  A 0.51 0.50 -0.6 0 1 1045.50 373.02
  Q 1083.78 372.95 1121.96 373.01
  Q 1128.64 373.02 1131.32 371.79
  C 1140.49 367.58 1140.04 354.40 1131.00 350.73
  Q 1128.05 349.53 1120.15 349.52
  Q 1104.34 349.48 1088.49 349.46
  C 1063.88 349.43 1043.79 337.38 1040.92 311.07
  C 1037.34 278.19 1061.79 259.02 1092.44 258.86
  Q 1133.32 258.64 1174.47 258.79
  Q 1174.79 258.79 1174.66 259.08
  L 1159.67 291.70
  A 0.94 0.93 12.3 0 1 1158.82 292.24
  Q 1127.54 292.27 1096.25 292.22
  C 1092.59 292.22 1088.57 292.64 1085.50 294.49
  C 1079.82 297.90 1078.41 305.06 1082.17 310.45
  Q 1085.88 315.77 1093.52 315.85
  Q 1111.49 316.06 1129.51 315.97
  Z"
/>
<path fill="#ffffff" d="
  M 1214.25 346.48
  C 1187.66 337.93 1179.71 307.83 1190.57 284.79
  C 1199.29 266.29 1218.77 258.86 1238.06 258.81
  Q 1279.01 258.70 1319.72 258.77
  A 0.35 0.35 0.0 0 1 1320.04 259.27
  L 1305.03 291.87
  Q 1304.84 292.30 1304.37 292.30
  Q 1272.17 292.16 1240.01 292.31
  C 1220.43 292.41 1220.76 315.94 1240.38 315.98
  Q 1258.44 316.02 1276.50 315.99
  C 1297.62 315.96 1316.33 325.14 1321.72 347.00
  Q 1325.13 360.85 1320.74 374.50
  C 1314.84 392.84 1300.02 403.07 1281.49 405.95
  Q 1276.78 406.69 1266.33 406.71
  Q 1228.79 406.81 1191.25 406.73
  Q 1190.76 406.73 1190.76 406.25
  L 1190.72 373.49
  Q 1190.72 373.04 1191.17 373.04
  Q 1229.64 372.91 1268.12 373.04
  Q 1273.70 373.06 1276.66 371.74
  C 1288.51 366.45 1283.96 349.64 1270.94 349.57
  Q 1252.59 349.46 1234.25 349.49
  Q 1223.65 349.51 1214.25 346.48
  Z"
/>
</svg>
