<?xml version="1.0" encoding="UTF-8" standalone="no"?>
<!DOCTYPE svg PUBLIC "-//W3C//DTD SVG 1.1//EN" "http://www.w3.org/Graphics/SVG/1.1/DTD/svg11.dtd">
<svg xmlns="http://www.w3.org/2000/svg" version="1.1" viewBox="0.00 0.00 616.00 480.00">
<g stroke-width="2.00" fill="none" stroke-linecap="butt">
<path stroke="#765180" vector-effect="non-scaling-stroke" d="
  M 308.02 40.60
  Q 307.99 40.67 307.96 40.75"
/>
<path stroke="#af3b75" vector-effect="non-scaling-stroke" d="
  M 307.96 40.75
  C 211.28 118.05 211.10 262.36 308.03 339.61"
/>
<path stroke="#765180" vector-effect="non-scaling-stroke" d="
  M 308.03 339.61
  Q 308.04 339.65 308.06 339.68"
/>
<path stroke="#3a8cda" vector-effect="non-scaling-stroke" d="
  M 308.03 339.61
  C 404.39 263.07 405.02 116.65 307.96 40.75"
/>
</g>
<path fill="#eb001b" d="
  M 186.58 0.00
  L 194.80 0.00
  Q 258.17 2.05 308.02 40.60
  Q 307.99 40.67 307.96 40.75
  C 211.28 118.05 211.10 262.36 308.03 339.61
  Q 308.04 339.65 308.06 339.68
  C 183.03 435.63 4.58 351.12 0.00 193.69
  L 0.00 187.45
  C 1.96 84.21 83.83 3.05 186.58 0.00
  Z"
/>
<path fill="#00a2e5" d="
  M 421.07 0.00
  L 429.80 0.00
  C 532.62 3.30 614.30 84.54 616.00 188.07
  L 616.00 191.81
  C 613.51 349.33 432.94 436.89 308.06 339.68
  Q 308.04 339.65 308.03 339.61
  C 404.39 263.07 405.02 116.65 307.96 40.75
  Q 307.99 40.67 308.02 40.60
  Q 357.77 2.11 421.07 0.00
  Z"
/>
<path fill="#7375cf" d="
  M 307.96 40.75
  C 405.02 116.65 404.39 263.07 308.03 339.61
  C 211.10 262.36 211.28 118.05 307.96 40.75
  Z"
/>
<path fill="#00a2e5" d="
  M 596.12 302.12
  L 594.20 301.65
  A 0.46 0.46 0.0 0 1 594.29 300.74
  L 600.01 300.46
  A 0.57 0.57 0.0 0 1 600.45 301.42
  Q 599.80 302.13 598.91 301.85
  A 0.91 0.91 0.0 0 0 597.73 302.76
  L 597.95 307.33
  A 0.66 0.66 0.0 0 1 597.27 308.02
  Q 596.45 307.99 596.49 307.26
  Q 596.62 304.98 596.58 302.69
  Q 596.57 302.23 596.12 302.12
  Z"
/>
<path fill="#00a2e5" d="
  M 608.31 304.31
  L 607.35 306.58
  A 1.19 1.19 0.0 0 1 605.15 306.58
  L 603.90 303.61
  Q 603.61 302.94 603.41 303.64
  Q 602.89 305.37 603.41 307.03
  Q 603.70 307.97 602.91 307.98
  A 0.89 0.89 0.0 0 1 602.00 307.03
  L 602.33 301.19
  A 0.90 0.90 0.0 0 1 604.04 300.86
  L 605.77 304.59
  A 0.38 0.38 0.0 0 0 606.43 304.65
  Q 607.42 303.28 607.81 301.76
  Q 608.15 300.45 609.34 300.52
  A 0.85 0.85 0.0 0 1 610.14 301.42
  Q 609.99 303.90 610.35 306.49
  Q 610.65 308.62 609.20 307.09
  A 0.73 0.72 -62.5 0 1 609.01 306.47
  L 609.28 304.58
  A 0.51 0.51 0.0 0 0 608.31 304.31
  Z"
/>
<path fill="#000000" d="
  M 378.73 409.76
  L 388.15 409.80
  A 0.60 0.60 0.0 0 1 388.75 410.40
  L 388.75 424.75
  A 0.50 0.50 0.0 0 0 389.25 425.25
  L 406.00 425.25
  Q 406.50 425.25 406.50 425.75
  L 406.50 434.89
  Q 406.50 435.53 405.86 435.53
  L 389.00 435.44
  A 0.29 0.28 0.0 0 0 388.71 435.72
  Q 388.74 447.91 388.79 460.17
  C 388.83 468.95 400.80 466.43 405.38 463.91
  Q 405.93 463.60 406.12 464.20
  L 408.84 472.70
  A 0.69 0.68 66.9 0 1 408.52 473.51
  C 397.18 479.83 378.93 479.12 377.96 462.54
  Q 377.20 449.36 377.61 436.10
  Q 377.63 435.50 377.03 435.50
  L 368.00 435.50
  A 0.50 0.50 0.0 0 1 367.50 435.00
  L 367.50 425.75
  Q 367.50 425.25 368.00 425.25
  L 376.65 425.25
  A 0.90 0.90 0.0 0 0 377.55 424.35
  L 377.48 411.02
  Q 377.47 409.75 378.73 409.76
  Z"
/>
<path fill="#000000" d="
  M 319.45 450.04
  C 312.66 444.69 314.50 433.90 320.47 428.97
  C 329.61 421.41 346.39 424.16 356.01 429.02
  A 0.81 0.81 0.0 0 1 356.36 430.11
  L 352.35 437.82
  A 0.81 0.80 -61.9 0 1 351.24 438.16
  Q 342.63 433.30 332.51 434.48
  C 326.01 435.23 324.18 443.06 332.36 444.36
  C 339.68 445.52 348.39 445.89 354.18 450.81
  C 360.58 456.25 358.56 467.00 353.05 471.82
  C 342.98 480.64 324.16 477.51 313.88 471.30
  A 0.84 0.83 -58.6 0 1 313.61 470.16
  L 318.16 462.68
  Q 318.45 462.20 318.92 462.50
  Q 329.87 469.51 342.48 466.36
  C 346.85 465.27 348.76 459.70 343.74 457.45
  C 341.33 456.37 336.06 455.72 332.45 455.34
  Q 325.21 454.57 319.45 450.04
  Z"
/>
<path fill="#000000" d="
  M 433.50 430.76
  A 0.30 0.29 67.0 0 0 434.02 430.97
  Q 441.96 421.52 454.29 425.42
  A 0.63 0.63 0.0 0 1 454.70 426.22
  L 451.67 435.51
  A 0.55 0.55 0.0 0 1 450.98 435.86
  C 442.77 433.13 434.56 435.59 434.30 445.45
  Q 433.89 460.24 434.00 475.47
  A 0.52 0.52 0.0 0 1 433.48 476.00
  L 423.53 476.00
  A 0.62 0.61 0.9 0 1 422.91 475.37
  C 423.18 458.75 422.34 442.45 423.13 426.10
  Q 423.16 425.50 423.76 425.50
  L 433.06 425.50
  A 0.76 0.76 0.0 0 1 433.82 426.32
  L 433.50 430.76
  Z"
/>
<path fill="#000000" d="
  M 112.06 431.01
  C 120.13 420.54 135.18 423.08 142.76 432.70
  A 0.36 0.36 0.0 0 0 143.33 432.68
  C 152.62 419.74 174.40 421.95 179.54 437.02
  Q 180.83 440.82 180.78 448.09
  Q 180.69 461.57 180.77 474.97
  A 0.52 0.52 0.0 0 1 180.25 475.50
  L 170.02 475.50
  A 0.51 0.50 -0.0 0 1 169.51 475.00
  Q 169.48 461.11 169.47 447.32
  C 169.46 443.28 168.05 437.22 163.65 435.23
  C 157.63 432.50 149.97 435.03 147.32 441.17
  Q 146.02 444.18 146.02 451.66
  Q 146.01 463.44 145.99 475.24
  A 0.51 0.51 0.0 0 1 145.48 475.75
  L 135.34 475.74
  A 0.44 0.43 0.6 0 1 134.90 475.30
  Q 135.16 462.02 134.88 449.28
  Q 134.75 443.10 133.54 440.39
  C 128.52 429.15 111.63 434.80 111.57 446.58
  Q 111.49 461.00 111.50 475.46
  Q 111.50 476.00 110.96 476.00
  L 101.34 476.00
  Q 100.49 476.00 100.50 475.15
  L 100.50 426.12
  Q 100.50 425.50 101.13 425.50
  L 110.91 425.50
  Q 111.57 425.50 111.54 426.16
  L 111.39 430.77
  A 0.37 0.37 0.0 0 0 112.06 431.01
  Z"
/>
<path fill="#000000" d="
  M 231.74 430.75
  L 231.56 426.14
  A 0.62 0.62 0.0 0 1 232.18 425.50
  L 242.00 425.50
  Q 242.75 425.50 242.75 426.25
  L 242.75 475.38
  Q 242.75 476.00 242.12 476.00
  L 232.41 476.00
  A 0.81 0.80 -89.0 0 1 231.61 475.16
  L 231.81 470.84
  Q 231.86 469.86 231.16 470.55
  C 223.14 478.49 212.17 479.16 202.63 473.59
  C 187.51 464.76 186.17 441.08 199.89 429.84
  C 208.41 422.86 223.25 421.79 231.08 431.01
  A 0.38 0.37 -66.4 0 0 231.74 430.75
  Z
  M 216.7443 466.9180
  A 16.28 15.30 90.9 0 0 232.2981 450.8803
  A 16.28 15.30 90.9 0 0 217.2557 434.3620
  A 16.28 15.30 90.9 0 0 201.7019 450.3997
  A 16.28 15.30 90.9 0 0 216.7443 466.9180
  Z"
/>
<path fill="#000000" d="
  M 265.70 455.71
  C 268.67 470.23 285.45 469.38 294.81 462.56
  A 0.68 0.67 54.3 0 1 295.77 462.72
  L 300.56 469.69
  Q 300.91 470.19 300.43 470.56
  C 288.60 479.62 269.20 480.23 259.74 467.59
  C 254.05 459.99 253.02 449.21 256.23 440.24
  C 262.24 423.46 285.69 418.43 297.39 432.37
  Q 304.94 441.36 303.24 454.16
  A 0.97 0.97 0.0 0 1 302.28 455.00
  L 266.28 455.00
  A 0.59 0.59 0.0 0 0 265.70 455.71
  Z
  M 267.72 446.17
  Q 279.56 445.74 291.39 446.35
  A 0.64 0.64 0.0 0 0 292.06 445.64
  C 290.37 430.11 270.02 429.81 265.97 445.12
  A 0.92 0.91 9.3 0 0 266.80 446.27
  Q 267.07 446.29 267.31 446.23
  Q 267.51 446.18 267.72 446.17
  Z"
/>
<path fill="#000000" d="
  M 514.9460 451.9078
  A 27.41 26.43 2.4 0 1 486.4532 477.1668
  A 27.41 26.43 2.4 0 1 460.1740 449.6122
  A 27.41 26.43 2.4 0 1 488.6668 424.3532
  A 27.41 26.43 2.4 0 1 514.9460 451.9078
  Z
  M 487.9969 467.0944
  A 16.31 15.72 88.5 0 0 503.2846 450.3785
  A 16.31 15.72 88.5 0 0 487.1431 434.4856
  A 16.31 15.72 88.5 0 0 471.8554 451.2015
  A 16.31 15.72 88.5 0 0 487.9969 467.0944
  Z"
/>
<path fill="#000000" d="
  M 532.5339 473.5782
  A 5.08 4.79 2.8 0 1 527.2260 478.1143
  A 5.08 4.79 2.8 0 1 522.3861 473.0818
  A 5.08 4.79 2.8 0 1 527.6940 468.5457
  A 5.08 4.79 2.8 0 1 532.5339 473.5782
  Z
  M 531.52 473.53
  A 3.94 3.94 0.0 0 0 527.58 469.59
  A 3.94 3.94 0.0 0 0 523.64 473.53
  A 3.94 3.94 0.0 0 0 527.58 477.47
  A 3.94 3.94 0.0 0 0 531.52 473.53
  Z"
/>
<path fill="#000000" d="
  M 527.41 474.75
  Q 526.84 474.91 526.73 475.59
  A 0.49 0.49 0.0 0 1 525.75 475.51
  L 525.75 472.20
  Q 525.75 471.68 526.21 471.45
  Q 526.39 471.37 526.57 471.39
  Q 527.03 471.43 526.85 471.85
  Q 526.39 472.90 527.48 473.24
  Q 528.27 473.49 528.60 472.96
  Q 528.83 472.58 528.62 472.19
  L 528.32 471.62
  A 0.15 0.15 0.0 0 1 528.52 471.42
  Q 530.65 472.51 529.24 473.92
  Q 528.81 474.36 529.02 474.94
  L 529.25 475.56
  A 0.33 0.33 0.0 0 1 528.89 476.00
  Q 528.13 475.87 528.01 475.12
  Q 527.92 474.60 527.41 474.75
  Z"
/>
</svg>
