<?xml version="1.0" encoding="UTF-8" standalone="no"?>
<!DOCTYPE svg PUBLIC "-//W3C//DTD SVG 1.1//EN" "http://www.w3.org/Graphics/SVG/1.1/DTD/svg11.dtd">
<svg xmlns="http://www.w3.org/2000/svg" version="1.1" viewBox="0.00 0.00 1280.00 994.00">
<g stroke-width="2.00" fill="none" stroke-linecap="butt">
<path stroke="#f52d0e" vector-effect="non-scaling-stroke" d="
  M 640.03 84.58
  Q 640.04 84.94 639.71 85.21
  C 440.08 243.54 439.30 548.67 640.13 706.87"
/>
<path stroke="#fb7c0e" vector-effect="non-scaling-stroke" d="
  M 640.34 707.03
  Q 656.23 693.77 665.04 685.55
  C 784.74 573.85 822.59 401.14 762.76 249.51
  C 736.88 183.92 694.54 129.32 640.20 84.62"
/>
</g>
<path fill="#eb001b" d="
  M 388.57 0.00
  L 404.34 0.00
  Q 536.25 4.06 640.03 84.58
  Q 640.04 84.94 639.71 85.21
  C 440.08 243.54 439.30 548.67 640.13 706.87
  C 584.09 750.71 517.32 779.46 446.60 788.36
  C 212.36 817.86 4.21 639.24 0.00 401.68
  L 0.00 390.19
  C 4.54 175.84 173.41 5.01 388.57 0.00
  Z"
/>
<path fill="#f79e1b" d="
  M 875.56 0.00
  L 891.55 0.00
  C 1101.99 4.80 1271.09 170.81 1280.00 380.82
  L 1280.00 410.80
  Q 1276.04 506.85 1230.46 588.19
  C 1111.26 800.90 832.79 856.95 640.34 707.03
  Q 656.23 693.77 665.04 685.55
  C 784.74 573.85 822.59 401.14 762.76 249.51
  C 736.88 183.92 694.54 129.32 640.20 84.62
  Q 743.78 4.15 875.56 0.00
  Z"
/>
<path fill="#ff5a00" d="
  M 640.03 84.58
  Q 640.12 84.60 640.20 84.62
  C 694.54 129.32 736.88 183.92 762.76 249.51
  C 822.59 401.14 784.74 573.85 665.04 685.55
  Q 656.23 693.77 640.34 707.03
  Q 640.24 706.95 640.13 706.87
  C 439.30 548.67 440.08 243.54 639.71 85.21
  Q 640.04 84.94 640.03 84.58
  Z"
/>
<path fill="#ffffff" d="
  M 1164.18 994.00
  L 1160.70 994.00
  Q 1147.17 993.34 1135.98 986.93
  C 1102.31 967.66 1100.90 915.15 1132.62 893.29
  C 1151.37 880.36 1179.23 880.08 1194.90 898.72
  A 0.35 0.34 -65.3 0 0 1195.51 898.49
  L 1195.49 845.25
  Q 1195.49 844.50 1196.25 844.50
  L 1217.50 844.50
  Q 1218.50 844.50 1218.50 845.50
  L 1218.50 991.28
  Q 1218.50 991.75 1218.03 991.75
  L 1196.11 991.75
  Q 1195.46 991.75 1195.47 991.11
  L 1195.57 979.49
  A 0.30 0.30 0.0 0 0 1195.03 979.30
  C 1187.27 989.72 1176.82 993.25 1164.18 994.00
  Z
  M 1145.44 965.31
  Q 1155.89 974.38 1169.54 972.80
  C 1204.97 968.73 1207.74 913.83 1173.39 905.95
  C 1137.33 897.69 1121.02 944.13 1145.44 965.31
  Z"
/>
<path fill="#ffffff" d="
  M 551.94 994.00
  L 547.70 994.00
  C 523.65 993.17 513.84 979.13 513.78 956.19
  Q 513.71 932.05 513.76 907.99
  A 0.74 0.74 0.0 0 0 513.02 907.25
  L 493.40 907.25
  A 0.66 0.65 90.0 0 1 492.75 906.59
  L 492.75 887.00
  Q 492.75 886.25 493.50 886.25
  L 513.00 886.25
  A 0.75 0.75 0.0 0 0 513.75 885.50
  L 513.75 855.00
  Q 513.75 854.50 514.25 854.50
  L 536.00 854.50
  Q 536.75 854.50 536.75 855.25
  L 536.75 885.75
  A 0.50 0.50 0.0 0 0 537.25 886.25
  L 573.50 886.25
  A 0.50 0.50 0.0 0 1 574.00 886.75
  L 574.00 906.50
  A 0.75 0.75 0.0 0 1 573.25 907.25
  L 537.00 907.25
  A 0.51 0.50 -90.0 0 0 536.50 907.76
  Q 536.49 929.65 536.54 951.75
  C 536.56 962.12 538.68 971.81 551.27 971.98
  Q 562.09 972.12 571.36 966.74
  A 0.46 0.46 0.0 0 1 572.03 966.99
  L 578.29 985.72
  A 0.77 0.75 -22.8 0 1 577.91 986.63
  Q 565.74 992.93 551.94 994.00
  Z"
/>
<path fill="#ffffff" d="
  M 396.94 938.81
  C 389.07 932.73 386.31 923.31 387.60 913.50
  C 392.55 875.65 450.70 880.06 473.56 894.64
  Q 474.07 894.97 473.79 895.51
  L 464.55 913.30
  A 0.58 0.57 27.0 0 1 463.77 913.55
  C 451.03 907.00 435.05 902.74 421.00 906.20
  C 416.69 907.26 412.46 910.70 411.56 915.10
  C 409.74 924.04 421.96 925.80 428.19 926.56
  C 442.38 928.30 459.54 929.64 469.61 941.40
  C 476.34 949.26 477.89 960.14 474.47 969.81
  C 469.86 982.82 456.76 989.91 443.56 992.31
  C 423.21 996.02 400.66 992.91 383.28 981.05
  A 0.70 0.70 0.0 0 1 383.08 980.10
  L 393.22 963.93
  A 0.95 0.95 0.0 0 1 394.55 963.64
  Q 408.98 973.26 426.04 973.97
  C 433.79 974.29 454.81 972.62 452.99 960.36
  C 451.96 953.41 440.44 950.86 434.91 950.15
  C 421.24 948.39 408.12 947.46 396.94 938.81
  Z"
/>
<path fill="#ffffff" d="
  M 634.46 992.46
  C 576.87 982.28 579.71 891.65 638.04 884.49
  C 669.86 880.58 692.12 901.20 693.90 932.82
  Q 694.18 937.77 693.93 948.30
  Q 693.92 948.75 693.48 948.75
  L 617.25 948.75
  Q 615.89 948.75 616.22 950.07
  C 622.79 976.29 650.88 979.01 671.04 967.74
  Q 674.73 965.69 678.28 963.33
  Q 678.71 963.04 679.00 963.47
  L 689.31 978.97
  A 0.90 0.90 0.0 0 1 689.08 980.20
  Q 664.49 997.77 634.46 992.46
  Z
  M 671.57 929.02
  A 0.41 0.40 -4.8 0 0 671.97 928.55
  C 669.82 914.83 661.95 904.66 647.27 903.90
  C 631.72 903.09 619.42 913.10 617.29 928.48
  Q 617.22 928.99 617.74 928.99
  L 671.57 929.02
  Z"
/>
<path fill="#ffffff" d="
  M 742.33 898.49
  A 0.33 0.33 0.0 0 0 742.94 898.67
  C 752.84 883.58 768.32 882.36 784.84 884.86
  Q 785.41 884.94 785.24 885.49
  L 778.96 906.24
  A 0.82 0.82 0.0 0 1 777.96 906.80
  C 760.22 902.03 743.38 905.85 742.87 927.57
  Q 742.11 959.15 742.51 990.48
  A 1.26 1.26 0.0 0 1 741.25 991.75
  L 720.25 991.75
  A 1.00 1.00 0.0 0 1 719.25 990.75
  L 719.25 886.75
  Q 719.25 886.25 719.75 886.25
  L 741.80 886.25
  Q 742.29 886.25 742.29 886.74
  L 742.33 898.49
  Z"
/>
<path fill="#ffffff" d="
  M 1060.78 898.51
  C 1070.77 883.45 1086.05 882.53 1102.44 884.90
  A 0.67 0.67 0.0 0 1 1102.99 885.76
  L 1096.73 906.23
  A 0.89 0.89 0.0 0 1 1095.65 906.83
  C 1075.43 901.54 1060.31 907.27 1060.27 930.72
  Q 1060.23 960.82 1060.26 990.76
  A 0.99 0.99 0.0 0 1 1059.27 991.75
  L 1038.00 991.75
  A 1.00 1.00 0.0 0 1 1037.00 990.75
  L 1037.00 886.96
  Q 1037.00 886.17 1037.79 886.17
  L 1059.81 886.29
  A 0.51 0.50 1.1 0 1 1060.32 886.81
  L 1060.05 898.28
  A 0.40 0.40 0.0 0 0 1060.78 898.51
  Z"
/>
<path fill="#ffffff" d="
  M 153.39 902.15
  Q 163.02 888.56 179.51 885.28
  C 203.72 880.46 227.18 890.84 231.34 917.11
  Q 231.96 921.02 231.97 929.05
  Q 232.04 960.15 231.98 991.26
  Q 231.98 991.75 231.49 991.75
  L 207.02 991.75
  A 0.49 0.49 0.0 0 1 206.53 991.26
  Q 206.45 961.83 206.49 932.51
  C 206.53 914.11 194.94 901.77 175.80 907.21
  C 163.71 910.65 158.53 920.06 158.45 932.25
  Q 158.25 961.79 158.22 991.25
  A 0.50 0.50 0.0 0 1 157.72 991.75
  L 135.76 991.75
  Q 135.24 991.75 135.24 991.23
  Q 135.26 962.85 135.29 934.50
  C 135.30 926.37 133.60 915.87 126.73 910.54
  C 120.01 905.32 108.86 904.75 101.17 907.89
  C 90.32 912.33 87.10 922.35 86.95 933.23
  Q 86.56 962.19 86.82 991.15
  Q 86.83 991.75 86.23 991.75
  L 64.50 991.75
  Q 63.75 991.75 63.75 991.00
  L 63.75 886.75
  A 0.50 0.50 0.0 0 1 64.25 886.25
  L 86.23 886.25
  Q 86.70 886.25 86.71 886.73
  L 86.92 898.76
  A 0.29 0.29 0.0 0 0 87.44 898.92
  Q 96.82 885.94 112.70 884.29
  Q 138.30 881.63 152.42 902.14
  A 0.59 0.59 0.0 0 0 153.39 902.15
  Z"
/>
<path fill="#ffffff" d="
  M 307.41 994.00
  L 304.18 994.00
  C 236.75 989.04 236.22 890.91 300.65 884.33
  Q 323.54 882.00 338.43 898.93
  A 0.24 0.23 -65.9 0 0 338.84 898.77
  L 338.71 886.90
  Q 338.70 886.25 339.35 886.25
  L 361.25 886.25
  Q 361.75 886.25 361.75 886.75
  L 361.75 991.25
  Q 361.75 991.75 361.25 991.75
  L 339.36 991.75
  Q 338.71 991.75 338.72 991.11
  L 338.82 979.50
  Q 338.83 978.90 338.45 979.36
  Q 326.72 993.72 307.41 994.00
  Z
  M 287.94 965.56
  C 299.21 974.68 314.69 975.59 326.45 967.13
  C 345.22 953.62 344.20 920.85 324.14 909.28
  C 311.26 901.85 292.72 904.16 283.42 916.42
  C 272.67 930.59 273.52 953.90 287.94 965.56
  Z"
/>
<path fill="#ffffff" d="
  M 851.91 994.00
  L 847.19 994.00
  C 822.64 992.77 802.74 980.56 795.49 956.76
  C 791.68 944.22 792.33 929.13 797.09 916.94
  C 807.59 890.05 835.15 880.81 862.07 885.15
  Q 875.45 887.31 886.04 895.87
  A 0.65 0.64 34.4 0 1 886.20 896.70
  L 875.92 914.15
  A 0.81 0.81 0.0 0 1 874.74 914.38
  C 847.57 893.97 811.82 909.24 816.54 945.39
  C 820.55 976.02 854.33 979.67 874.94 963.56
  A 0.57 0.57 0.0 0 1 875.78 963.72
  L 886.16 981.34
  A 0.80 0.79 -33.8 0 1 885.95 982.38
  Q 871.08 993.69 851.91 994.00
  Z"
/>
<path fill="#ffffff" d="
  M 951.68 994.00
  L 948.39 994.00
  Q 913.90 991.03 901.72 961.21
  C 887.15 925.51 910.35 883.20 951.17 884.22
  C 964.48 884.56 973.89 889.03 982.74 898.69
  A 0.29 0.29 0.0 0 0 983.25 898.49
  L 983.25 886.75
  A 0.50 0.50 0.0 0 1 983.75 886.25
  L 1005.50 886.25
  Q 1006.25 886.25 1006.25 887.00
  L 1006.25 991.25
  A 0.50 0.50 0.0 0 1 1005.75 991.75
  L 984.00 991.75
  Q 983.25 991.75 983.25 991.00
  L 983.25 979.51
  A 0.36 0.36 0.0 0 0 982.60 979.31
  C 975.71 989.21 964.00 993.76 951.68 994.00
  Z
  M 933.19 965.31
  C 943.22 973.71 957.19 975.49 968.62 969.19
  C 997.59 953.23 987.58 902.72 951.18 905.10
  C 921.09 907.07 911.65 947.29 933.19 965.31
  Z"
/>
</svg>
