<?xml version="1.0" encoding="UTF-8" standalone="no"?>
<!DOCTYPE svg PUBLIC "-//W3C//DTD SVG 1.1//EN" "http://www.w3.org/Graphics/SVG/1.1/DTD/svg11.dtd">
<svg xmlns="http://www.w3.org/2000/svg" version="1.1" viewBox="0.00 0.00 1301.00 1611.00">
<path fill="#ffffff" d="
  M 1018.31 0.00
  L 1027.01 0.00
  Q 1061.26 0.95 1082.52 24.97
  C 1105.01 50.39 1117.64 81.69 1132.88 111.09
  C 1198.94 238.44 1247.40 371.35 1274.59 511.97
  C 1291.94 601.69 1299.59 692.75 1301.00 784.06
  L 1301.00 817.55
  Q 1299.39 951.25 1274.24 1078.25
  C 1248.30 1209.25 1204.61 1335.91 1147.02 1456.29
  Q 1135.97 1479.38 1124.54 1502.28
  C 1117.45 1516.49 1110.40 1533.56 1104.51 1545.54
  C 1086.97 1581.19 1061.50 1609.20 1018.94 1611.00
  L 1012.18 1611.00
  C 962.52 1606.18 927.84 1557.32 938.56 1508.77
  C 945.07 1479.27 961.96 1455.42 976.24 1429.15
  C 1046.63 1299.59 1094.17 1161.07 1114.97 1014.74
  C 1132.20 893.57 1133.64 768.07 1122.07 649.02
  Q 1106.24 486.05 1048.67 332.90
  Q 1024.10 267.55 1001.66 220.82
  Q 978.71 173.08 956.89 124.80
  C 942.88 93.80 936.42 64.35 956.79 34.80
  Q 978.32 3.57 1018.31 0.00
  Z"
/>
<path fill="#ffffff" d="
  M 818.52 1348.55
  C 799.75 1389.04 765.60 1451.08 713.25 1450.51
  C 680.65 1450.16 648.57 1434.53 632.44 1405.48
  C 603.30 1353.00 642.49 1307.25 664.72 1262.02
  C 765.78 1056.36 797.69 825.25 750.54 600.34
  C 734.19 522.29 707.79 445.97 673.47 374.01
  C 658.78 343.22 642.39 313.41 630.79 281.24
  C 625.30 265.99 621.25 249.90 622.01 234.75
  C 622.67 221.51 631.48 207.01 640.29 197.54
  C 663.14 172.94 696.60 162.10 729.44 169.83
  C 754.82 175.80 772.06 195.82 785.42 217.33
  C 796.62 235.35 808.94 253.54 818.53 272.45
  C 888.74 410.91 934.17 563.81 946.95 717.31
  C 958.98 861.85 941.45 1005.34 898.68 1143.69
  C 876.95 1213.96 849.45 1281.85 818.52 1348.55
  Z"
/>
<path fill="#ffffff" d="
  M 404.86 330.45
  C 440.99 338.87 462.69 375.58 479.12 405.68
  Q 496.89 438.24 513.17 471.56
  C 555.39 558.03 578.54 649.57 584.39 745.06
  Q 588.76 816.33 582.67 893.07
  Q 574.30 998.52 534.73 1096.49
  Q 517.21 1139.88 495.61 1181.40
  C 473.30 1224.29 451.56 1284.59 393.84 1289.68
  Q 386.14 1290.36 377.78 1288.68
  C 326.37 1278.35 283.81 1231.86 306.47 1177.04
  C 315.48 1155.24 332.28 1129.77 341.48 1112.24
  Q 395.81 1008.68 409.41 892.33
  C 413.88 854.13 415.15 815.92 414.05 777.51
  C 411.07 673.55 383.82 573.95 333.09 483.33
  C 318.55 457.35 299.24 425.99 300.19 396.01
  Q 300.37 390.36 303.94 381.61
  C 317.63 348.14 348.43 325.95 385.05 327.80
  Q 395.85 328.35 404.86 330.45
  Z"
/>
<path fill="#ffffff" d="
  M 0.00 1056.69
  L 0.00 1049.19
  C 1.78 1022.97 19.02 999.17 31.96 977.20
  Q 41.03 961.80 50.85 938.90
  C 63.70 908.96 69.12 878.41 70.59 845.81
  C 71.93 816.12 71.97 786.53 69.73 757.44
  Q 65.56 703.48 39.94 655.73
  C 28.54 634.48 16.09 613.27 6.62 591.09
  Q 1.64 579.42 0.00 566.94
  L 0.00 561.19
  Q 0.88 552.37 1.47 549.76
  C 10.35 510.82 42.63 479.13 84.07 481.18
  C 125.92 483.26 148.65 509.80 167.77 543.64
  Q 173.47 553.73 177.86 560.90
  C 229.25 644.73 254.33 740.56 249.54 839.43
  C 245.34 926.01 219.76 1013.30 172.45 1086.44
  C 151.61 1118.66 121.35 1149.77 80.20 1150.64
  C 79.12 1150.66 77.49 1150.36 76.34 1149.94
  C 36.72 1135.27 3.58 1100.15 0.00 1056.69
  Z"
/>
</svg>
