<?xml version="1.0" encoding="UTF-8" standalone="no"?>
<!DOCTYPE svg PUBLIC "-//W3C//DTD SVG 1.1//EN" "http://www.w3.org/Graphics/SVG/1.1/DTD/svg11.dtd">
<svg xmlns="http://www.w3.org/2000/svg" version="1.1" viewBox="0.00 0.00 1599.00 519.00">
<path fill="#000000" d="
  M 962.87 314.93
  C 903.52 281.78 829.65 250.96 827.03 170.49
  C 825.69 129.42 841.68 90.17 870.61 61.59
  C 943.78 -10.71 1075.49 -11.84 1165.61 22.84
  Q 1166.08 23.02 1165.97 23.51
  L 1143.00 128.68
  A 0.43 0.42 20.4 0 1 1142.38 128.96
  Q 1137.46 126.27 1132.10 124.11
  C 1095.79 109.43 1055.51 101.92 1016.08 106.62
  C 997.09 108.88 971.83 118.48 963.88 137.32
  C 953.58 161.71 979.53 179.64 997.41 190.10
  C 1056.86 224.88 1131.84 251.75 1140.74 332.00
  Q 1141.94 342.83 1141.80 350.74
  C 1139.78 462.82 1036.61 513.95 938.99 518.05
  Q 854.08 521.62 774.40 491.25
  Q 773.47 490.90 773.68 489.93
  L 796.95 381.71
  A 0.52 0.51 24.2 0 1 797.76 381.41
  C 798.30 381.80 798.97 382.45 799.54 382.75
  Q 854.67 411.38 917.44 414.13
  C 945.66 415.36 989.64 408.46 1003.26 379.47
  C 1017.65 348.84 984.78 327.17 962.87 314.93
  Z"
/>
<path fill="#000000" d="
  M 336.47 348.95
  Q 336.65 349.93 337.02 349.01
  L 471.73 9.26
  Q 471.93 8.75 472.48 8.75
  L 607.40 8.75
  A 0.30 0.28 -77.4 0 1 607.64 9.17
  L 397.79 509.99
  Q 397.57 510.50 397.02 510.50
  L 261.76 510.50
  A 0.57 0.55 82.6 0 1 261.22 510.07
  Q 210.89 315.20 160.48 120.26
  C 158.34 112.00 155.28 100.91 152.57 94.28
  C 145.99 78.17 132.61 68.27 117.09 61.39
  Q 61.85 36.94 1.82 25.01
  Q 0.72 24.79 0.91 23.69
  L 3.44 9.31
  Q 3.54 8.75 4.10 8.75
  Q 111.07 8.75 217.99 8.75
  C 245.83 8.74 269.34 21.48 278.82 48.38
  Q 280.70 53.72 283.37 67.82
  Q 310.00 208.60 336.47 348.95
  Z"
/>
<path fill="#000000" d="
  M 685.08 510.50
  L 556.51 510.50
  A 0.50 0.50 0.0 0 1 556.02 509.90
  L 662.45 9.15
  A 0.50 0.50 0.0 0 1 662.93 8.75
  L 791.13 8.75
  A 0.50 0.50 0.0 0 1 791.62 9.35
  L 685.57 510.10
  A 0.50 0.50 0.0 0 1 685.08 510.50
  Z"
/>
<path fill="#000000" d="
  M 1462.74 434.50
  L 1298.02 434.50
  A 0.46 0.44 8.8 0 0 1297.59 434.80
  L 1271.35 510.08
  Q 1271.20 510.50 1270.75 510.50
  L 1135.75 510.50
  A 0.52 0.52 0.0 0 1 1135.27 509.78
  Q 1231.68 278.98 1327.99 48.53
  C 1337.77 25.12 1357.06 9.04 1382.94 8.88
  Q 1438.43 8.54 1493.92 8.83
  Q 1494.56 8.84 1494.69 9.46
  L 1598.67 510.01
  Q 1598.77 510.50 1598.26 510.50
  L 1480.04 510.50
  Q 1479.09 510.50 1478.89 509.56
  L 1463.37 435.01
  Q 1463.26 434.50 1462.74 434.50
  Z
  M 1402.60 145.37
  L 1335.54 332.02
  Q 1335.37 332.50 1335.94 332.50
  L 1442.77 332.50
  Q 1443.30 332.50 1443.19 331.99
  L 1403.27 145.41
  Q 1403.02 144.21 1402.60 145.37
  Z"
/>
</svg>
