<?xml version="1.0" encoding="UTF-8" standalone="no"?>
<!DOCTYPE svg PUBLIC "-//W3C//DTD SVG 1.1//EN" "http://www.w3.org/Graphics/SVG/1.1/DTD/svg11.dtd">
<svg xmlns="http://www.w3.org/2000/svg" version="1.1" viewBox="0.00 0.00 600.00 600.00">
<path fill="#b2b2b2" d="
  M 222.84 177.05
  L 222.57 177.88
  Q 222.40 178.41 221.87 178.60
  C 219.19 179.59 212.41 180.70 211.05 183.10
  Q 208.66 187.30 205.36 191.14
  A 1.77 1.76 32.5 0 1 203.29 191.59
  C 196.40 188.47 196.68 183.20 194.52 176.91
  Q 193.79 174.78 195.95 175.42
  Q 199.80 176.57 201.81 173.28
  A 1.40 1.36 55.3 0 0 201.98 172.26
  Q 201.32 169.25 200.41 166.33
  C 199.44 163.25 196.63 161.48 194.39 159.30
  A 1.62 1.62 0.0 0 0 193.56 158.87
  L 185.90 157.42
  A 0.72 0.72 0.0 0 1 185.34 156.51
  Q 185.58 155.68 186.75 155.70
  C 189.60 155.76 197.57 157.31 196.81 152.16
  Q 196.74 151.65 196.24 151.76
  Q 186.22 154.07 176.18 156.13
  Q 175.08 156.35 173.54 157.27
  A 1.19 1.17 80.4 0 0 172.98 158.07
  Q 172.63 160.02 171.16 159.04
  A 0.93 0.90 -40.4 0 0 170.25 158.98
  L 166.66 160.68
  Q 166.13 160.93 165.61 160.68
  L 160.97 158.51
  A 0.82 0.79 54.0 0 0 160.51 158.43
  Q 157.30 158.83 155.83 156.15
  Q 155.56 155.67 155.91 155.25
  C 159.44 150.90 168.43 153.08 173.73 150.27
  C 178.28 147.85 182.45 146.88 187.91 147.56
  C 198.28 148.85 209.35 150.33 219.95 148.11
  Q 220.44 148.01 220.84 148.29
  L 222.30 149.31
  A 1.15 1.11 63.3 0 0 222.87 149.51
  Q 235.80 150.21 248.74 149.68
  C 251.27 149.58 253.39 147.87 256.29 149.78
  A 1.50 1.49 57.0 0 0 257.31 150.00
  Q 259.95 149.61 260.49 152.31
  Q 260.59 152.79 260.12 152.95
  Q 256.74 154.11 254.35 156.80
  A 1.39 1.36 66.3 0 0 254.00 157.72
  L 254.00 159.74
  Q 254.00 160.17 253.68 160.45
  C 248.26 165.34 243.71 158.26 244.01 169.92
  Q 244.03 170.45 243.69 170.88
  Q 241.97 173.03 238.50 173.18
  Q 233.43 173.40 223.47 176.43
  Q 223.00 176.57 222.84 177.05
  Z"
/>
<path fill="#b2b2b2" d="
  M 335.15 180.57
  L 340.69 185.38
  A 1.06 1.06 0.0 0 0 342.05 185.40
  C 346.96 181.44 350.10 179.37 356.17 177.19
  C 359.03 176.16 360.37 174.33 363.79 176.25
  A 1.13 1.12 -42.0 0 0 364.82 176.30
  Q 366.46 175.57 368.20 176.02
  A 1.00 0.98 -61.2 0 0 369.16 175.73
  Q 370.93 173.77 373.45 172.96
  Q 373.98 172.79 374.36 173.19
  C 377.54 176.46 383.86 178.12 387.85 175.57
  A 0.53 0.52 46.8 0 0 387.87 174.70
  Q 384.56 172.36 383.04 168.68
  A 1.30 1.30 0.0 0 1 384.10 166.89
  Q 390.50 166.22 392.06 172.41
  C 392.42 173.85 392.00 175.78 392.51 177.50
  Q 392.74 178.27 393.53 178.12
  L 396.85 177.52
  A 0.65 0.64 -18.6 0 0 397.31 176.60
  Q 395.54 173.01 394.03 169.48
  Q 393.86 169.08 394.01 168.78
  A 0.37 0.37 0.0 0 1 394.66 168.76
  L 397.52 173.61
  Q 398.15 174.68 399.39 174.53
  C 402.83 174.09 400.20 169.12 399.72 167.46
  A 0.86 0.86 0.0 0 1 400.40 166.38
  C 403.86 165.79 406.51 164.83 410.34 164.81
  Q 415.66 164.78 419.49 160.87
  Q 419.88 160.47 420.43 160.45
  L 432.99 159.92
  Q 433.49 159.90 433.92 160.15
  C 436.81 161.85 438.88 160.26 441.30 160.68
  Q 442.80 160.94 444.22 161.60
  A 0.50 0.50 0.0 0 1 444.27 162.48
  Q 442.16 163.73 441.14 166.05
  A 0.73 0.73 0.0 0 0 441.84 167.07
  L 450.27 166.71
  Q 450.75 166.69 451.17 166.91
  C 454.86 168.80 457.44 168.97 461.84 167.94
  C 465.82 167.01 470.05 166.71 473.80 168.72
  C 476.52 170.19 480.43 170.36 483.47 170.47
  C 488.52 170.65 492.33 173.25 495.59 167.22
  Q 495.82 166.80 496.27 166.96
  Q 499.14 167.99 501.89 169.19
  C 510.48 172.97 518.99 167.92 526.31 172.42
  A 0.83 0.76 57.8 0 0 526.71 172.53
  Q 537.01 172.37 546.88 175.22
  Q 547.34 175.36 547.60 174.95
  L 548.82 173.00
  Q 549.16 172.46 549.79 172.56
  C 556.40 173.60 563.66 174.31 569.72 176.51
  C 576.33 178.91 581.90 174.68 587.38 181.72
  A 0.39 0.39 0.0 0 1 586.98 182.34
  L 575.27 179.44
  A 0.61 0.61 0.0 0 0 574.54 179.84
  Q 573.88 181.76 571.74 181.70
  A 0.44 0.43 -30.2 0 0 571.52 182.52
  L 579.70 186.85
  A 0.77 0.77 0.0 0 1 579.27 188.29
  C 574.48 187.83 573.94 190.87 570.74 193.53
  Q 570.09 194.07 570.19 193.23
  L 570.53 190.52
  A 0.46 0.46 0.0 0 0 569.84 190.07
  C 567.97 191.20 564.30 192.56 563.37 194.48
  A 1.82 1.81 -70.1 0 0 564.56 197.03
  C 572.19 198.95 569.22 206.95 569.31 212.52
  A 0.38 0.38 0.0 0 1 568.68 212.80
  L 562.32 207.01
  Q 561.94 206.67 561.96 206.16
  C 562.09 202.17 555.00 203.01 556.71 195.63
  Q 556.82 195.16 557.14 194.80
  L 558.57 193.21
  A 0.95 0.94 -35.4 0 0 558.74 192.23
  Q 558.16 190.77 558.07 189.15
  A 1.93 1.93 0.0 0 0 554.48 188.27
  Q 553.65 189.67 551.98 189.90
  A 0.52 0.48 -28.9 0 1 551.61 189.81
  L 549.24 188.11
  A 0.43 0.43 0.0 0 0 548.75 188.09
  C 545.28 190.27 547.12 192.77 545.10 195.32
  Q 544.78 195.72 544.27 195.60
  Q 539.20 194.35 534.04 193.71
  C 532.73 193.54 529.70 192.57 528.32 193.83
  C 524.07 197.67 521.82 199.26 523.49 205.60
  Q 523.62 206.09 524.12 206.19
  C 528.08 207.00 533.07 205.78 537.10 207.71
  A 1.56 1.54 -0.4 0 1 537.83 208.42
  Q 539.52 211.83 542.58 214.11
  A 0.85 0.85 0.0 0 1 542.89 214.97
  Q 541.99 219.05 542.47 223.22
  Q 542.54 223.83 542.28 224.39
  L 540.04 229.23
  Q 539.83 229.69 539.32 229.72
  C 537.00 229.83 532.61 228.81 533.57 233.00
  A 0.83 0.82 63.8 0 1 533.30 233.81
  Q 531.14 235.60 531.42 238.39
  A 1.59 1.57 14.3 0 0 532.09 239.51
  L 538.89 244.23
  Q 540.15 245.10 539.64 246.54
  C 538.95 248.52 535.80 252.51 533.34 250.19
  Q 532.98 249.86 532.91 249.37
  L 532.38 245.56
  Q 532.29 244.90 531.69 244.62
  L 527.81 242.78
  Q 527.35 242.56 527.38 242.06
  Q 527.53 239.24 525.08 238.16
  A 0.88 0.86 -51.4 0 0 524.21 238.27
  L 522.02 239.92
  Q 521.54 240.28 521.16 239.81
  Q 519.90 238.23 519.59 236.07
  A 1.52 1.51 59.4 0 0 516.88 235.37
  L 511.29 242.82
  A 1.09 1.09 0.0 0 0 512.19 244.56
  L 521.12 244.30
  A 0.43 0.43 0.0 0 1 521.49 244.97
  L 519.11 248.63
  A 0.87 0.86 51.7 0 0 519.02 249.42
  C 521.15 255.25 530.17 259.49 528.16 267.02
  C 526.30 274.00 522.85 276.12 516.15 278.04
  Q 515.66 278.18 515.33 278.56
  Q 512.62 281.66 510.88 285.40
  Q 510.01 287.29 509.81 287.49
  Q 507.40 289.92 508.16 286.48
  Q 509.47 280.54 503.67 279.70
  Q 502.97 279.60 502.58 280.18
  L 498.71 286.04
  A 0.72 0.72 0.0 0 0 498.88 287.02
  Q 506.54 292.74 509.24 300.02
  C 510.36 303.03 504.90 308.27 503.00 309.54
  C 499.35 311.99 498.41 308.42 496.69 306.72
  Q 493.81 303.89 491.48 300.54
  Q 491.19 300.12 490.73 300.35
  C 487.93 301.73 488.75 308.18 488.53 310.92
  A 0.45 0.45 0.0 0 1 487.67 311.08
  C 485.86 307.36 487.07 303.80 486.57 300.81
  Q 486.02 297.46 484.27 294.45
  Q 483.98 293.94 483.38 293.98
  Q 482.11 294.06 481.27 295.14
  A 0.92 0.91 60.3 0 1 479.64 294.69
  L 479.14 290.79
  A 0.91 0.90 14.7 0 0 478.78 290.18
  C 475.41 287.73 474.98 287.72 473.03 283.50
  C 471.40 279.95 467.62 279.71 464.39 278.89
  Q 463.90 278.77 463.49 279.06
  C 459.17 282.13 456.95 285.84 452.19 288.37
  C 449.75 289.67 448.18 293.46 447.31 295.94
  C 446.16 299.23 447.42 303.79 447.21 307.48
  Q 447.18 308.07 446.72 308.44
  L 443.35 311.17
  A 2.01 2.01 0.0 0 1 440.17 310.22
  Q 436.71 299.32 431.71 289.02
  A 1.47 1.43 -50.1 0 1 431.63 287.98
  Q 432.76 284.17 430.74 280.83
  Q 430.44 280.34 429.95 280.64
  L 427.95 281.87
  A 2.40 2.40 0.0 0 1 424.84 281.34
  C 423.42 279.59 422.67 278.40 420.61 277.04
  Q 418.84 275.88 417.74 274.02
  A 1.49 1.44 -3.4 0 0 417.02 273.40
  C 415.55 272.83 414.12 271.95 412.53 271.90
  C 406.92 271.72 398.46 273.00 394.77 267.61
  Q 394.49 267.19 393.98 267.18
  C 386.57 267.14 382.58 265.19 377.76 259.55
  Q 377.37 259.09 377.14 259.65
  Q 376.62 260.87 376.97 262.02
  Q 377.91 265.07 380.75 272.29
  Q 380.93 272.76 381.32 273.06
  L 384.20 275.32
  Q 384.56 275.61 384.99 275.45
  L 389.38 273.80
  A 1.95 1.88 8.0 0 0 390.22 273.19
  L 393.01 269.78
  A 0.60 0.60 0.0 0 1 393.98 269.83
  Q 394.38 270.42 394.46 271.09
  C 394.85 274.18 398.09 277.09 400.66 278.28
  A 1.51 1.50 35.6 0 1 401.07 280.73
  C 396.45 285.17 393.57 291.62 387.32 294.20
  C 384.10 295.52 374.69 301.50 371.17 300.55
  C 366.84 299.37 367.83 293.77 365.83 290.65
  C 362.61 285.61 358.54 280.75 355.77 274.21
  C 354.80 271.89 350.33 264.01 347.06 264.66
  Q 346.56 264.76 346.16 264.45
  L 344.83 263.45
  Q 343.93 262.76 344.43 263.78
  Q 349.54 274.09 353.93 284.72
  C 354.62 286.39 356.87 290.34 358.27 291.62
  Q 364.85 297.67 367.31 306.31
  Q 367.47 306.86 368.03 306.76
  Q 373.98 305.67 380.03 306.04
  Q 380.46 306.06 380.86 305.91
  L 383.95 304.75
  A 0.56 0.56 0.0 0 1 384.69 305.40
  C 384.01 308.32 383.71 311.27 382.04 313.82
  C 379.48 317.73 377.09 321.40 373.80 324.98
  Q 367.57 331.73 362.18 339.20
  C 360.34 341.74 358.03 343.65 359.06 347.19
  C 361.27 354.71 363.69 362.02 360.69 368.30
  A 1.74 1.73 -2.8 0 1 360.05 369.00
  C 355.81 371.65 350.50 376.07 349.67 381.45
  Q 349.60 381.93 349.81 382.37
  Q 350.99 384.79 350.57 387.55
  Q 350.50 388.02 350.08 388.24
  C 346.63 390.04 345.44 392.60 343.62 396.34
  C 341.48 400.76 335.79 405.00 332.26 408.55
  Q 331.90 408.92 331.41 409.09
  L 324.39 411.67
  Q 324.00 411.82 323.58 411.75
  Q 321.00 411.35 318.86 412.75
  A 0.81 0.80 -48.3 0 1 318.10 412.80
  Q 315.24 411.51 314.93 409.26
  Q 313.88 401.75 309.28 397.09
  Q 308.93 396.73 308.84 396.23
  C 308.11 391.84 307.93 387.37 306.46 383.39
  C 305.16 379.87 301.01 373.99 301.04 370.65
  C 301.09 365.77 307.82 359.47 304.52 355.22
  Q 304.22 354.84 304.31 354.37
  C 305.17 349.49 302.85 347.12 301.36 343.02
  Q 299.77 338.64 296.05 335.86
  A 2.19 2.18 -59.9 0 1 295.36 333.24
  C 297.46 328.44 297.99 322.09 291.65 320.34
  Q 291.16 320.21 290.74 320.48
  Q 289.58 321.24 288.83 320.14
  C 282.54 310.85 274.50 320.45 267.19 318.86
  Q 266.69 318.75 266.26 319.02
  C 257.45 324.60 248.64 314.72 245.74 307.27
  Q 245.09 305.59 240.81 303.06
  A 0.80 0.80 0.0 0 1 240.43 302.24
  Q 240.94 299.43 239.53 297.05
  Q 239.26 296.61 239.52 296.17
  Q 243.20 289.96 241.27 283.01
  C 241.01 282.09 241.28 280.54 241.69 279.49
  Q 246.04 268.46 255.84 261.61
  Q 256.26 261.33 256.22 260.83
  C 255.76 253.92 262.21 253.57 265.07 248.21
  A 0.58 0.58 0.0 0 1 266.03 248.11
  L 266.98 249.26
  Q 267.24 249.57 267.64 249.52
  Q 268.97 249.35 270.07 248.55
  A 1.38 1.35 28.2 0 1 271.00 248.28
  Q 273.46 248.46 275.88 248.68
  C 278.27 248.90 278.71 247.40 280.73 247.08
  Q 285.61 246.31 290.53 245.87
  C 292.83 245.67 294.92 244.81 297.17 244.26
  A 1.25 1.25 0.0 0 1 298.50 246.18
  Q 296.71 248.79 297.32 251.98
  Q 297.42 252.48 297.91 252.60
  Q 300.25 253.19 301.38 255.38
  A 0.80 0.80 0.0 0 0 302.26 255.79
  L 303.87 255.44
  Q 304.47 255.30 305.00 255.60
  L 312.25 259.62
  A 1.00 0.91 57.0 0 0 312.71 259.74
  L 316.09 259.77
  Q 316.57 259.77 316.86 259.39
  Q 318.59 257.10 318.83 254.30
  Q 318.87 253.83 319.25 254.10
  C 326.30 259.14 335.02 258.31 343.24 258.85
  C 347.60 259.13 349.69 250.73 349.89 247.71
  A 1.49 1.49 0.0 0 0 348.59 246.14
  C 342.52 245.35 334.95 247.82 330.49 242.18
  Q 330.25 241.87 330.25 241.48
  L 330.25 235.71
  A 0.51 0.51 0.0 0 0 329.60 235.22
  Q 327.71 235.76 326.09 236.96
  A 0.78 0.77 37.7 0 1 325.33 237.05
  L 323.83 236.45
  A 0.98 0.98 0.0 0 0 322.48 237.35
  Q 322.45 239.65 324.64 240.70
  A 0.58 0.58 0.0 0 1 324.48 241.79
  Q 322.79 242.08 323.03 243.98
  A 0.61 0.61 0.0 0 1 322.55 244.65
  Q 320.66 245.04 319.77 243.20
  Q 318.28 240.07 315.97 237.47
  A 1.94 1.84 -71.8 0 1 315.51 236.50
  L 314.92 232.81
  A 0.89 0.89 0.0 0 0 314.27 232.09
  L 311.58 231.42
  A 0.57 0.54 -13.0 0 1 311.34 231.28
  Q 307.31 227.22 302.19 224.75
  A 0.96 0.96 0.0 0 0 300.89 225.99
  C 303.25 231.50 309.24 232.56 312.85 237.39
  A 0.37 0.37 0.0 0 1 312.39 237.94
  L 311.02 237.26
  A 0.53 0.53 0.0 0 0 310.25 237.73
  L 310.25 239.04
  A 1.45 1.42 -21.9 0 1 309.79 240.09
  Q 308.47 241.34 307.32 242.71
  C 306.38 243.84 305.20 244.25 304.28 242.90
  Q 303.93 242.38 304.56 242.34
  Q 307.43 242.15 308.66 239.41
  Q 308.89 238.90 308.53 238.46
  Q 304.47 233.64 298.49 231.61
  A 1.38 1.34 89.3 0 1 297.63 230.75
  Q 296.52 227.38 292.76 227.70
  Q 292.25 227.74 292.25 228.25
  L 292.25 229.72
  Q 292.25 230.35 291.62 230.44
  Q 289.55 230.75 287.56 230.06
  A 2.39 2.38 -63.1 0 0 284.82 230.96
  L 282.27 234.64
  A 0.93 0.90 10.3 0 1 281.72 235.01
  Q 278.38 235.68 277.54 238.98
  Q 277.44 239.39 277.53 239.80
  C 278.02 241.99 273.12 244.39 270.16 246.09
  Q 269.74 246.32 269.30 246.14
  Q 265.84 244.67 262.02 244.59
  A 1.04 1.03 -14.8 0 1 261.18 244.11
  Q 259.09 240.84 260.68 237.18
  A 0.95 0.94 49.7 0 0 260.73 236.54
  Q 259.48 232.20 262.49 229.32
  Q 262.90 228.93 263.46 228.97
  Q 266.97 229.21 270.05 230.81
  Q 270.52 231.05 271.06 231.04
  Q 275.50 230.89 275.65 227.33
  C 275.77 224.56 273.52 222.48 271.27 221.21
  A 0.57 0.57 0.0 0 1 271.52 220.14
  L 275.01 219.94
  A 0.32 0.32 0.0 0 0 275.15 219.34
  L 272.42 217.91
  A 0.65 0.65 0.0 0 1 272.75 216.69
  Q 277.08 216.90 281.09 215.24
  Q 281.51 215.06 281.73 214.66
  Q 283.38 211.70 286.62 211.31
  Q 287.18 211.24 287.23 210.68
  Q 287.50 207.25 291.23 207.59
  A 1.26 1.24 -63.5 0 0 292.22 207.25
  L 294.97 204.66
  Q 295.44 204.22 295.87 204.69
  L 296.78 205.67
  A 0.73 0.72 -37.3 0 0 297.71 205.79
  Q 301.87 203.09 305.48 206.41
  A 0.89 0.89 0.0 0 0 306.57 206.50
  L 308.91 205.00
  A 1.61 1.57 28.0 0 1 309.77 204.75
  L 314.27 204.75
  Q 314.81 204.75 315.21 204.40
  Q 316.22 203.53 316.84 202.31
  A 0.77 0.62 65.3 0 0 316.90 202.07
  L 317.08 199.73
  A 0.65 0.65 0.0 0 1 317.97 199.18
  L 319.43 199.78
  A 1.59 1.58 6.1 0 0 321.59 198.04
  L 320.96 194.51
  A 0.41 0.41 0.0 0 1 321.60 194.10
  Q 324.37 196.01 327.11 193.87
  A 1.48 1.48 0.0 0 0 326.15 191.23
  C 323.16 191.34 318.90 193.26 317.53 189.40
  Q 317.36 188.92 317.64 188.50
  L 320.43 184.31
  A 1.33 1.33 0.0 0 0 318.91 182.31
  Q 315.19 183.54 312.06 185.86
  Q 311.67 186.15 311.60 186.63
  C 311.27 188.81 309.66 191.68 311.94 193.57
  Q 312.36 193.92 312.01 194.33
  C 310.54 196.05 310.12 198.14 308.60 199.54
  Q 306.91 201.08 304.88 202.17
  Q 304.46 202.40 304.03 202.18
  L 301.76 201.02
  Q 301.18 200.72 301.23 200.07
  C 301.49 197.03 295.27 194.74 292.97 193.65
  A 0.72 0.72 0.0 0 0 292.01 193.98
  L 291.42 195.17
  A 0.49 0.49 0.0 0 1 290.50 195.05
  Q 289.87 192.10 290.70 189.25
  Q 290.83 188.80 291.29 188.70
  L 295.51 187.80
  Q 296.09 187.67 296.19 187.09
  C 297.02 182.37 308.19 175.67 313.08 172.34
  C 314.93 171.08 315.78 171.30 317.82 171.28
  Q 331.29 171.17 344.39 176.44
  A 0.76 0.75 16.0 0 1 344.85 177.26
  C 344.38 180.14 342.30 179.59 340.08 178.78
  Q 338.14 178.07 335.41 179.11
  Q 334.06 179.62 335.15 180.57
  Z"
/>
<path fill="#b2b2b2" d="
  M 101.80 169.04
  Q 98.48 169.11 95.42 167.73
  Q 94.74 167.42 95.34 166.99
  L 99.36 164.11
  Q 99.83 163.77 100.42 163.80
  L 105.99 164.07
  A 1.68 1.66 -26.1 0 1 106.88 164.37
  L 112.70 168.48
  A 0.99 0.99 0.0 0 0 113.70 168.55
  Q 115.72 167.56 117.89 167.93
  Q 118.37 168.02 118.83 167.84
  L 123.00 166.25
  A 0.50 0.49 81.1 0 1 123.67 166.74
  L 123.43 171.78
  A 0.55 0.54 84.2 0 1 123.03 172.28
  L 115.88 174.26
  Q 115.50 174.37 115.13 174.21
  L 112.76 173.19
  A 1.32 1.30 -45.3 0 0 111.72 173.20
  C 108.81 174.48 100.46 175.67 102.25 169.63
  Q 102.43 169.02 101.80 169.04
  Z"
/>
<path fill="#b2b2b2" d="
  M 153.19 165.87
  A 1.58 1.57 -26.8 0 0 154.67 166.35
  L 161.95 164.84
  Q 162.54 164.72 163.03 165.06
  Q 167.24 168.00 172.38 168.44
  A 0.78 0.77 15.4 0 1 173.02 169.55
  L 172.23 171.19
  A 0.61 0.60 -60.6 0 0 172.44 171.97
  Q 176.06 174.31 176.39 178.76
  A 1.02 1.02 0.0 0 1 175.00 179.79
  L 172.63 178.85
  Q 172.28 178.72 172.09 179.03
  Q 172.02 179.16 172.00 179.29
  Q 171.97 179.45 172.13 179.67
  Q 173.59 181.60 174.16 183.95
  A 0.54 0.54 0.0 0 1 173.37 184.55
  L 171.28 183.37
  A 0.67 0.66 -52.7 0 0 170.48 183.48
  L 169.68 184.28
  A 0.77 0.76 51.4 0 0 169.58 185.23
  L 170.56 186.73
  A 1.28 1.28 0.0 0 1 169.21 188.68
  Q 163.99 187.49 159.53 184.38
  A 1.10 1.10 0.0 0 1 159.76 182.45
  C 166.57 179.84 166.52 178.17 163.14 172.07
  Q 162.88 171.60 162.36 171.48
  L 153.95 169.52
  A 1.40 1.40 0.0 0 0 152.51 170.04
  L 151.41 171.48
  A 0.74 0.74 0.0 0 1 150.19 171.43
  L 148.50 168.76
  A 0.86 0.84 54.2 0 1 148.67 167.66
  L 151.69 165.14
  Q 152.17 164.73 152.60 165.20
  L 153.19 165.87
  Z"
/>
<path fill="#b2b2b2" d="
  M 151.87 224.49
  Q 144.67 226.20 139.45 231.33
  A 0.88 0.86 -17.7 0 0 139.21 231.78
  L 138.80 234.03
  A 0.66 0.65 12.2 0 1 138.00 234.54
  Q 133.59 233.48 131.54 237.47
  A 1.40 1.33 -5.9 0 1 131.11 237.97
  Q 126.67 241.10 123.90 245.64
  C 121.60 249.41 113.90 253.45 110.11 256.13
  C 104.93 259.78 113.26 267.69 107.08 271.54
  Q 106.63 271.82 106.36 271.37
  Q 104.38 268.04 104.58 264.08
  Q 104.60 263.53 104.25 263.10
  Q 100.87 258.98 95.41 259.13
  Q 94.86 259.14 94.51 259.56
  L 92.25 262.19
  Q 91.90 262.61 91.36 262.71
  Q 88.67 263.22 87.49 260.97
  Q 87.24 260.49 86.70 260.59
  Q 79.91 261.82 74.48 266.07
  Q 74.09 266.38 73.94 266.85
  C 72.18 272.32 66.84 282.32 73.34 286.54
  Q 78.06 289.60 83.07 286.57
  Q 83.46 286.34 83.66 285.93
  L 85.91 281.43
  A 1.22 1.21 -81.9 0 1 86.77 280.78
  Q 88.86 280.40 90.78 281.25
  Q 91.83 281.71 91.43 282.79
  L 87.56 293.28
  Q 87.31 293.96 88.01 293.76
  Q 92.25 292.57 96.38 294.12
  A 0.66 0.65 -79.4 0 1 96.81 294.75
  C 96.70 298.83 95.21 303.00 96.79 307.56
  A 1.56 1.50 11.9 0 0 97.21 308.18
  L 102.10 312.36
  A 0.45 0.45 0.0 0 1 101.69 313.13
  Q 99.97 312.67 98.66 311.48
  A 1.41 1.40 -18.6 0 0 97.93 311.12
  Q 91.99 310.00 91.51 304.01
  A 0.61 0.60 23.4 0 0 91.36 303.64
  L 87.79 299.59
  Q 87.42 299.17 86.86 299.19
  C 81.47 299.37 78.69 296.44 74.92 293.67
  Q 74.51 293.37 74.03 293.52
  C 66.48 295.83 59.94 290.64 53.74 286.12
  Q 53.27 285.78 53.32 285.21
  L 53.62 281.62
  Q 53.66 281.18 53.48 280.79
  Q 51.07 275.58 47.95 270.85
  Q 44.41 265.46 44.23 263.75
  Q 43.81 259.87 41.68 257.71
  A 1.40 1.40 0.0 0 0 39.31 258.98
  C 40.05 262.49 41.92 265.21 42.51 268.61
  Q 42.93 271.01 43.49 273.36
  Q 43.78 274.57 43.07 273.56
  Q 37.40 265.53 37.70 255.63
  A 2.37 2.37 0.0 0 0 36.27 253.38
  C 30.20 250.75 30.17 242.25 30.58 236.60
  Q 30.62 236.10 30.99 235.78
  C 33.44 233.71 34.75 230.71 36.50 228.62
  Q 39.28 225.31 41.52 221.59
  A 0.97 0.91 -31.0 0 0 41.66 221.10
  Q 41.64 218.67 43.99 218.37
  Q 44.79 218.26 44.63 217.47
  L 42.85 208.44
  Q 42.76 207.95 42.88 207.47
  C 43.71 204.18 45.37 196.44 40.56 195.45
  Q 40.09 195.35 39.92 194.90
  Q 39.44 193.64 37.50 193.28
  Q 31.12 192.06 24.69 191.28
  Q 24.14 191.21 23.65 191.45
  L 18.98 193.71
  A 0.51 0.51 0.0 0 1 18.25 193.25
  L 18.25 192.50
  Q 18.25 191.73 17.57 192.10
  C 15.92 192.98 14.60 194.37 12.93 194.95
  Q 8.64 196.45 4.18 197.48
  Q 3.76 197.57 3.94 197.18
  L 4.54 195.82
  Q 4.72 195.41 4.30 195.25
  L 0.67 193.85
  A 0.88 0.87 10.9 0 1 0.12 193.04
  Q 0.13 188.68 3.82 187.03
  C 8.27 185.05 11.13 187.96 15.20 183.11
  A 0.49 0.49 0.0 0 0 14.92 182.31
  Q 12.80 181.89 11.54 183.62
  A 0.59 0.59 0.0 0 1 10.71 183.75
  L 8.59 182.21
  A 0.60 0.59 37.3 0 1 8.47 181.35
  C 10.79 178.50 13.39 179.63 16.83 180.75
  Q 17.31 180.91 17.72 180.63
  Q 18.86 179.87 18.70 178.60
  Q 18.63 178.00 18.21 177.58
  L 17.53 176.91
  Q 17.04 176.41 17.65 176.07
  C 21.73 173.81 24.69 174.45 28.43 173.18
  C 33.14 171.58 38.84 171.95 43.83 171.13
  C 48.48 170.37 52.39 170.46 56.85 170.51
  Q 57.33 170.52 57.57 170.94
  C 59.11 173.67 61.94 177.33 65.71 176.00
  C 72.37 173.65 79.28 172.14 86.33 173.42
  Q 92.41 174.53 98.64 174.16
  A 0.57 0.56 -2.5 0 1 99.24 174.70
  L 99.28 175.89
  Q 99.30 176.40 99.80 176.40
  Q 104.14 176.43 107.53 178.87
  Q 107.99 179.20 108.27 178.71
  C 110.51 174.75 113.27 176.08 116.54 175.85
  Q 122.26 175.46 127.40 178.16
  Q 127.88 178.41 128.32 178.12
  Q 132.53 175.34 134.14 170.49
  A 0.90 0.90 0.0 0 1 134.75 169.91
  L 138.36 168.91
  Q 139.00 168.73 139.00 169.39
  L 139.00 172.71
  A 0.71 0.70 7.5 0 0 139.53 173.39
  L 140.76 173.72
  Q 141.41 173.89 141.28 174.56
  L 140.93 176.28
  Q 140.76 177.13 141.57 176.80
  L 150.24 173.18
  A 0.90 0.89 80.8 0 1 151.48 174.08
  C 151.29 176.73 146.76 177.95 144.69 178.44
  C 142.14 179.05 140.81 179.92 139.02 181.55
  A 0.43 0.43 0.0 0 1 138.45 181.56
  L 136.26 179.69
  A 0.48 0.48 0.0 0 0 135.47 180.11
  Q 135.93 184.20 131.78 184.99
  C 127.10 185.88 112.97 190.99 115.73 198.17
  Q 115.91 198.64 116.34 198.90
  C 118.08 200.00 119.42 201.42 121.47 201.87
  Q 125.35 202.74 129.27 203.37
  Q 129.90 203.47 129.51 203.97
  C 124.64 210.27 133.79 215.80 134.79 205.80
  A 0.91 0.91 0.0 0 1 135.37 205.05
  L 143.27 202.15
  A 0.48 0.47 -16.9 0 0 143.57 201.60
  Q 142.59 197.34 143.42 193.03
  A 0.63 0.63 0.0 0 1 144.20 192.53
  L 145.16 192.78
  A 0.99 0.97 -59.4 0 0 146.09 192.53
  L 150.42 188.22
  A 0.99 0.99 0.0 0 1 151.39 187.97
  C 154.74 188.96 160.52 188.98 159.42 194.34
  A 1.73 1.72 -8.0 0 0 161.91 196.21
  L 168.26 192.87
  A 1.20 1.20 0.0 0 1 170.01 194.08
  L 169.32 199.72
  Q 169.26 200.20 169.54 200.60
  L 172.51 204.98
  A 0.52 0.51 50.2 0 0 173.31 205.06
  L 173.77 204.60
  Q 174.17 204.21 174.54 204.62
  L 176.15 206.40
  Q 176.58 206.88 176.21 207.40
  C 173.79 210.74 170.10 214.03 165.71 213.75
  Q 156.52 213.17 148.04 216.65
  A 0.79 0.79 0.0 0 0 148.26 218.17
  C 150.92 218.44 154.19 217.30 156.73 218.01
  A 0.57 0.57 0.0 0 1 156.92 219.01
  L 153.97 221.28
  Q 153.29 221.81 154.05 222.21
  Q 157.88 224.21 161.51 222.01
  A 0.95 0.95 0.0 0 1 162.55 223.61
  Q 159.78 225.54 156.38 225.76
  Q 155.81 225.79 155.37 226.16
  L 150.76 229.93
  A 0.57 0.57 0.0 0 1 149.83 229.57
  Q 149.38 226.30 152.07 225.05
  A 0.30 0.30 0.0 0 0 151.87 224.49
  Z"
/>
<path fill="#b2b2b2" d="
  M 164.32 333.22
  C 166.28 332.88 169.98 331.16 171.31 333.19
  Q 171.56 333.56 172.00 333.52
  C 175.44 333.21 177.07 335.38 179.44 337.47
  Q 179.82 337.81 180.27 337.59
  C 181.82 336.83 184.11 337.81 185.89 337.61
  Q 186.41 337.55 186.89 337.74
  L 192.83 340.06
  A 0.76 0.74 86.2 0 1 193.21 340.40
  Q 193.68 341.29 194.07 341.45
  Q 197.01 342.68 199.61 344.53
  Q 200.03 344.83 200.11 345.34
  C 201.02 351.61 195.47 353.28 194.06 358.43
  Q 192.06 365.78 191.31 373.37
  C 190.92 377.30 189.44 380.27 188.00 383.76
  Q 187.80 384.24 187.32 384.43
  Q 182.46 386.31 176.07 388.03
  C 172.40 389.02 175.51 391.96 174.92 393.84
  C 173.68 397.73 171.25 399.44 171.04 404.21
  Q 171.02 404.72 170.65 405.08
  C 166.50 409.01 166.05 415.46 158.37 411.08
  A 0.80 0.80 0.0 0 0 157.36 412.29
  Q 159.00 414.23 161.38 415.32
  Q 163.38 416.23 161.96 417.91
  L 158.22 422.34
  A 1.28 1.27 -50.0 0 1 156.43 422.50
  Q 155.24 421.49 153.79 421.93
  A 0.79 0.79 0.0 0 0 153.24 422.71
  L 153.35 426.95
  A 0.78 0.77 -10.0 0 1 152.81 427.71
  Q 150.91 428.32 149.34 427.04
  Q 148.54 426.38 148.40 427.40
  L 148.20 428.86
  A 0.78 0.78 0.0 0 0 148.57 429.62
  Q 151.28 431.25 150.58 434.36
  A 2.00 1.89 -17.7 0 1 150.05 435.32
  Q 148.29 437.08 147.93 439.54
  Q 147.83 440.25 148.54 440.25
  L 150.48 440.25
  Q 150.97 440.25 151.15 440.72
  C 153.10 446.02 147.92 448.79 150.35 453.07
  A 0.73 0.73 0.0 0 1 149.59 454.15
  C 141.69 452.83 138.43 446.43 135.28 440.02
  A 0.80 0.79 -38.6 0 1 135.38 439.16
  C 136.37 437.96 138.35 435.31 136.40 434.06
  A 1.28 1.27 12.1 0 1 135.83 433.19
  Q 135.06 428.47 131.44 425.35
  A 1.09 1.09 0.0 0 1 131.05 424.56
  Q 130.65 416.74 129.91 409.02
  C 129.07 400.21 128.90 391.30 128.59 382.46
  C 128.53 380.69 129.13 379.06 129.27 377.24
  Q 129.31 376.71 128.98 376.30
  L 126.59 373.25
  A 0.54 0.53 -13.0 0 0 126.28 373.06
  C 122.81 372.43 112.97 364.89 110.75 360.39
  C 107.97 354.74 106.05 349.88 101.15 344.49
  A 1.63 1.61 -69.6 0 1 100.75 343.60
  Q 100.41 340.71 103.01 339.52
  A 0.72 0.71 -34.8 0 0 103.22 338.37
  C 101.29 336.42 100.89 334.77 102.63 332.39
  Q 107.46 325.76 110.99 318.43
  Q 111.23 317.92 110.84 317.53
  Q 109.01 315.68 109.24 313.04
  Q 109.28 312.51 109.65 312.11
  L 115.03 306.22
  A 0.79 0.76 19.3 0 1 115.59 305.96
  Q 118.12 305.88 118.51 303.27
  A 0.74 0.74 0.0 0 1 119.78 302.88
  Q 122.28 305.61 122.04 309.27
  A 0.69 0.69 0.0 0 0 123.37 309.56
  L 125.46 303.88
  Q 125.60 303.50 125.97 303.67
  L 131.82 306.44
  Q 132.36 306.69 132.94 306.68
  L 140.67 306.57
  A 0.58 0.57 -89.1 0 1 141.25 307.18
  L 141.21 308.05
  Q 141.19 308.52 141.59 308.78
  C 143.35 309.87 144.50 311.00 146.59 311.61
  Q 151.24 312.96 153.96 317.18
  A 1.20 1.17 82.2 0 0 154.59 317.67
  Q 156.09 318.14 157.20 319.26
  A 0.90 0.89 63.9 0 0 157.91 319.51
  C 163.39 318.97 165.72 323.45 167.40 328.10
  A 0.89 0.88 54.7 0 1 167.26 328.94
  L 164.15 332.95
  Q 163.89 333.30 164.32 333.22
  Z"
/>
<path fill="#b2b2b2" d="
  M 528.65 325.90
  C 529.47 327.38 531.09 329.59 528.85 330.92
  A 0.79 0.79 0.0 0 0 528.48 331.74
  Q 528.73 333.07 527.60 334.08
  Q 527.20 334.44 526.74 334.74
  Q 525.43 335.62 525.44 337.36
  A 2.02 2.02 0.0 0 1 522.98 339.35
  Q 519.06 338.48 515.07 338.94
  A 0.94 0.91 68.4 0 1 514.22 338.56
  Q 511.53 334.82 510.93 330.33
  A 1.46 1.45 -85.5 0 1 512.79 328.74
  L 513.95 329.08
  Q 514.70 329.30 515.03 328.60
  L 518.02 322.20
  Q 518.24 321.73 518.76 321.67
  Q 523.68 321.16 525.83 316.65
  A 0.61 0.61 0.0 0 1 526.73 316.41
  L 530.04 318.72
  Q 530.65 319.14 530.42 319.84
  L 528.60 325.39
  A 0.68 0.65 -51.9 0 0 528.65 325.90
  Z"
/>
<path fill="#b2b2b2" d="
  M 500.13 345.70
  C 496.03 342.90 491.53 334.11 488.83 329.72
  C 487.14 326.97 484.27 323.42 482.46 319.88
  Q 482.23 319.43 482.72 319.55
  L 485.82 320.36
  A 0.70 0.69 86.5 0 1 486.29 320.78
  Q 488.30 325.86 493.58 327.18
  Q 494.08 327.30 494.41 327.71
  Q 498.92 333.35 502.42 339.64
  C 503.80 342.11 504.19 344.38 501.27 345.79
  A 1.16 1.15 -40.1 0 1 500.13 345.70
  Z"
/>
<path fill="#b2b2b2" d="
  M 600.00 356.32
  L 600.00 356.82
  C 594.78 357.81 591.07 354.11 586.85 349.96
  A 0.87 0.87 0.0 0 0 585.68 349.93
  L 582.86 352.39
  A 0.45 0.45 0.0 0 1 582.24 352.37
  Q 582.12 352.25 582.00 352.12
  A 0.81 0.80 -29.2 0 0 581.20 351.90
  C 577.26 352.97 576.31 348.88 573.60 350.18
  A 0.43 0.43 0.0 0 1 572.99 349.76
  L 573.32 345.82
  A 0.94 0.92 -67.8 0 0 573.01 345.06
  Q 568.36 340.91 562.14 340.52
  A 1.40 1.39 24.4 0 1 561.24 338.14
  L 561.72 337.66
  Q 562.19 337.19 561.66 336.78
  L 558.34 334.22
  A 0.34 0.34 0.0 0 1 558.49 333.62
  L 561.73 333.11
  A 1.34 1.33 -5.3 0 1 563.28 334.39
  Q 563.39 337.70 565.72 340.05
  Q 566.09 340.43 566.61 340.35
  Q 569.80 339.85 570.87 336.87
  A 1.29 1.28 21.5 0 1 572.58 336.13
  C 576.10 337.62 579.96 338.55 583.34 340.47
  C 585.75 341.84 588.42 341.38 589.87 344.26
  Q 590.73 345.96 592.22 347.18
  Q 592.57 347.47 592.33 347.86
  L 591.67 348.91
  Q 591.34 349.42 591.82 349.80
  L 600.00 356.32
  Z"
/>
<path fill="#b2b2b2" d="
  M 559.20 408.71
  L 554.09 411.65
  A 1.37 1.01 5.0 0 1 552.29 410.06
  Q 552.58 409.87 552.51 409.49
  A 1.46 0.49 87.3 0 0 552.16 408.59
  L 548.53 405.38
  Q 548.16 405.04 547.67 405.13
  C 544.81 405.63 539.22 405.18 537.83 406.73
  Q 537.49 407.11 537.01 407.27
  Q 535.77 407.71 534.53 408.10
  C 533.31 408.49 531.25 408.13 529.93 409.40
  Q 529.58 409.73 529.11 409.82
  Q 524.14 410.69 516.28 412.83
  Q 514.23 413.39 513.01 411.75
  A 0.57 0.56 58.2 0 1 513.20 410.91
  L 513.85 410.57
  Q 514.28 410.35 514.35 409.87
  C 515.13 404.99 513.82 400.63 514.43 396.08
  Q 515.16 390.55 515.89 385.01
  Q 515.96 384.51 516.40 384.25
  C 519.20 382.64 521.15 381.06 524.43 380.19
  Q 529.70 378.78 534.32 375.87
  A 1.69 1.63 -5.6 0 0 534.96 375.12
  L 536.67 371.17
  A 0.55 0.55 0.0 0 1 537.58 371.01
  L 538.49 371.99
  A 0.59 0.59 0.0 0 0 539.50 371.52
  Q 539.23 369.18 541.42 368.55
  A 0.83 0.82 1.3 0 0 541.97 368.03
  Q 542.93 365.18 545.80 364.28
  Q 546.35 364.11 546.82 364.46
  Q 547.88 365.24 548.11 366.54
  A 0.95 0.94 -87.2 0 0 548.79 367.30
  L 551.43 368.05
  A 0.55 0.54 89.9 0 0 552.10 367.37
  Q 551.28 364.56 553.80 364.07
  A 1.35 1.34 -79.1 0 0 554.67 363.48
  C 557.93 358.46 561.37 359.96 566.34 360.35
  A 0.68 0.68 0.0 0 1 566.86 361.38
  Q 565.34 363.86 565.26 366.79
  Q 565.25 367.30 565.62 367.64
  Q 567.65 369.55 569.86 371.23
  C 576.47 376.23 579.21 363.72 579.90 359.40
  Q 580.06 358.43 580.53 359.29
  C 583.12 363.99 586.33 369.37 585.25 375.17
  Q 585.16 375.69 585.65 375.89
  C 590.91 377.97 588.08 383.81 594.11 385.85
  Q 594.55 386.00 594.70 386.44
  C 596.71 392.59 595.45 395.55 593.99 400.73
  C 592.90 404.58 588.43 409.47 585.39 412.00
  C 582.27 414.62 580.00 417.68 576.45 419.53
  Q 573.10 421.27 569.64 422.77
  Q 569.21 422.96 568.86 422.64
  Q 566.53 420.52 563.67 421.83
  Q 563.21 422.04 562.74 421.84
  Q 558.82 420.20 559.98 415.83
  Q 560.10 415.37 559.78 415.01
  L 558.44 413.48
  A 0.45 0.43 -58.4 0 1 558.35 413.06
  L 559.62 409.04
  A 0.29 0.28 -6.5 0 0 559.20 408.71
  Z"
/>
<path fill="#b2b2b2" d="
  M 380.73 361.71
  A 0.20 0.20 0.0 0 1 381.09 361.71
  C 383.96 368.05 379.76 377.44 376.52 383.02
  A 1.25 1.18 65.1 0 0 376.36 383.50
  L 375.71 388.96
  Q 375.64 389.62 375.01 389.82
  L 370.29 391.35
  Q 369.78 391.51 369.44 391.10
  Q 366.36 387.38 367.38 382.52
  A 0.75 0.75 0.0 0 1 367.68 382.06
  L 369.13 381.02
  Q 369.59 380.68 369.72 380.13
  Q 370.82 375.50 369.83 370.85
  Q 369.73 370.36 370.17 370.14
  L 378.31 365.99
  Q 378.82 365.74 379.06 365.22
  L 380.73 361.71
  Z"
/>
</svg>
